<?xml version="1.0" standalone="no"?>
<!DOCTYPE svg PUBLIC "-//W3C//DTD SVG 20010904//EN"
 "http://www.w3.org/TR/2001/REC-SVG-20010904/DTD/svg10.dtd">
<svg version="1.0" xmlns="http://www.w3.org/2000/svg"
 width="1298.000000pt" height="849.000000pt" viewBox="0 0 1298.000000 849.000000"
 preserveAspectRatio="xMidYMid meet">

<g transform="translate(0.000000,849.000000) scale(0.100000,-0.100000)"
fill="#000000" stroke="none">
<path d="M12820 8403 c-52 -3 -332 -35 -465 -52 -258 -34 -658 -124 -950 -212
-217 -66 -532 -185 -740 -279 -206 -92 -428 -205 -555 -280 -30 -18 -75 -44
-100 -58 -249 -139 -613 -400 -920 -661 -125 -107 -517 -490 -585 -572 -17
-20 -68 -81 -115 -135 -99 -115 -192 -230 -235 -290 -151 -211 -245 -346 -245
-350 0 -3 -17 -31 -39 -62 -42 -63 -141 -222 -141 -227 0 -2 -26 -48 -57 -102
-31 -54 -97 -181 -146 -283 -49 -102 -109 -224 -133 -273 -24 -48 -44 -101
-44 -118 0 -73 55 -133 133 -145 37 -6 37 -7 37 -53 0 -143 -51 -406 -117
-595 -54 -159 -198 -435 -217 -416 -5 6 -32 167 -51 305 -8 61 -26 198 -40
305 -14 107 -29 220 -33 250 -5 39 -11 55 -22 55 -17 0 -15 4 -151 -286 l-102
-217 -56 34 c-141 83 -333 85 -466 3 -27 -17 -51 -27 -53 -22 -2 4 -54 116
-116 248 -108 232 -134 271 -150 229 -9 -23 -116 -826 -116 -869 0 -19 -4 -35
-10 -35 -11 0 -62 96 -123 230 -46 103 -102 281 -127 410 -20 104 -40 323 -37
410 l2 55 40 5 c77 11 125 65 125 143 0 42 -17 83 -119 290 -65 133 -149 294
-186 357 -37 63 -76 129 -86 147 -100 175 -352 534 -504 718 -124 152 -124
151 -180 214 -493 551 -1025 983 -1645 1334 -209 118 -388 206 -675 332 -149
66 -581 219 -720 255 -484 127 -655 160 -1085 210 -140 16 -477 40 -487 35 -1
-1 21 -17 50 -36 29 -19 135 -91 237 -159 747 -503 1430 -1204 1947 -1999 175
-269 433 -742 537 -986 21 -49 51 -119 67 -155 46 -107 147 -381 189 -515 15
-49 41 -133 58 -185 58 -186 182 -727 205 -900 3 -19 15 -107 27 -195 l23
-161 81 13 c303 45 638 -33 908 -213 270 -180 481 -488 549 -802 6 -29 13 -52
15 -52 2 0 30 17 62 38 196 132 432 133 629 5 57 -38 142 -125 186 -191 147
-225 208 -363 397 -897 48 -137 118 -331 155 -430 37 -99 91 -263 120 -365 68
-245 71 -245 136 -10 56 199 283 905 370 1146 119 334 180 458 278 572 246
286 552 348 830 169 83 -54 74 -62 109 83 67 274 250 545 486 719 253 187 592
282 893 251 63 -6 117 -9 120 -7 2 3 13 76 24 164 11 87 21 165 24 173 2 8 7
35 10 60 4 25 18 104 31 175 14 72 27 141 30 155 2 14 12 54 20 89 9 36 18 73
20 84 28 147 178 643 249 822 112 284 145 366 195 475 467 1021 1116 1861
2020 2611 137 114 431 327 582 422 l91 57 -49 -2 c-27 -1 -74 -3 -104 -5z"/>
</g>
</svg>
